<?xml version="1.0"?><svg version="1.2" baseProfile="tiny-ps" viewBox="0 0 300 300" xmlns="http://www.w3.org/2000/svg" xmlns:xlink="http://www.w3.org/1999/xlink"><title>7xx.ch</title><g><g fill="#83ede7" transform="matrix(.1 0 0 -.1 0 300)"><path d="M0 1500V0h3000v3000H0V1500z"/></g><g fill="#fbd10e" transform="matrix(.1 0 0 -.1 0 300)"><path d="M180 2994c0-3 55-107 122-231 442-821 736-1722 813-2492 8-85 15-180 15-212V0h545c300 0 545 3 545 6s-5 15-11 27l-10 22 15-19c9-11 16-23 16-28V0h770v3000H618l4-7c2-5 18-36 36-70 18-35 30-63 28-63-3 0-21 32-42 70l-36 70H394c-118 0-214-2-214-6zm550-204c17-33 28-60 25-60-2 0-18 27-35 60s-28 60-25 60c2 0 18-27 35-60zm105-195c32-60 53-105 48-100-6 6-36 60-68 120-32 61-53 106-48 100 6-5 36-59 68-120zm667-1235c617-1146 637-1182 621-1165-5 6-97 172-203 370s-373 692-591 1097c-414 767-447 830-432 813 6-5 278-507 605-1115zm668-1240c17-33 28-60 25-60-2 0-18 27-35 60s-28 60-25 60c2 0 18-27 35-60zM0 1318V0h800v53c0 64-23 258-51 432-97 600-316 1273-617 1895-43 91-91 185-105 210l-27 45V1318z"/></g><g fill="#35f58a" transform="matrix(.1 0 0 -.1 0 300)"><path d="M180 2994c0-3 55-107 122-231 442-821 736-1722 813-2492 8-85 15-180 15-212V0h545c300 0 545 3 545 6s-5 15-11 27l-10 22 15-19c9-11 16-23 16-28V0h99l-38 68c-21 37-133 243-248 457-116 215-426 788-688 1275-263 487-516 956-562 1043l-85 157h-90l4-7c2-5 18-36 36-70 18-35 30-63 28-63-3 0-21 32-42 70l-36 70H394c-118 0-214-2-214-6zm550-204c17-33 28-60 25-60-2 0-18 27-35 60s-28 60-25 60c2 0 18-27 35-60zm105-195c32-60 53-105 48-100-6 6-36 60-68 120-32 61-53 106-48 100 6-5 36-59 68-120zm667-1235c617-1146 637-1182 621-1165-5 6-97 172-203 370s-373 692-591 1097c-414 767-447 830-432 813 6-5 278-507 605-1115zm668-1240c17-33 28-60 25-60-2 0-18 27-35 60s-28 60-25 60c2 0 18-27 35-60zM1098 2948c16-29 215-397 442-818s508-943 626-1160c117-217 282-523 366-680L2686 5l157-3 157-3v3001H1069l29-52zM0 1318V0h800v53c0 64-23 258-51 432-97 600-316 1273-617 1895-43 91-91 185-105 210l-27 45V1318z"/></g><g fill="#f11516" transform="matrix(.1 0 0 -.1 0 300)"><path d="M180 2995c0-3 44-87 99-188 181-335 279-544 407-870 254-643 413-1296 440-1811l7-126h748l-25 43c-13 23-267 492-564 1042-296 550-651 1206-787 1458l-248 457h-38c-22 0-39-2-39-5zm474-57c59-108 1035-1918 1315-2440L2235 1l47-1h47l-38 68c-21 37-133 243-248 457-116 215-426 788-688 1275-263 487-516 956-562 1043l-85 157h-89l35-62zm444 10c16-29 215-397 442-818s508-943 626-1160c117-217 282-523 366-680L2686 5l157-3 157-3v3001H1069l29-52zM1 1318 0 0h800v38c0 20-7 98-15 172-78 702-316 1482-672 2199L2 2635 1 1318z"/></g><g fill="#4e4839" transform="matrix(.1 0 0 -.1 0 300)"><path d="M180 2995c0-3 44-87 99-188 181-335 279-544 407-870 254-643 413-1296 440-1811l7-126h748l-25 43c-13 23-267 492-564 1042-296 550-651 1206-787 1458l-248 457h-38c-22 0-39-2-39-5zm474-57c59-108 1035-1918 1315-2440L2235 1l39-1h38l-5 13c-2 7-156 294-342 637-185 344-546 1013-802 1488l-465 862h-79l35-62zm444 10c16-29 215-397 442-818s501-929 610-1130c108-201 270-502 360-670s169-311 175-318l12-13 31 3 31 3-495 915c-271 503-634 1177-806 1497l-313 582-38 1h-38l29-52zm422 48c0-3 241-451 536-998 295-546 619-1148 721-1338s194-358 204-375l19-30v2745h-740c-407 0-740-2-740-4zM1 1318 0 0h800v38c0 20-7 98-15 172-78 702-316 1482-672 2199L2 2635 1 1318z"/></g><g fill="#0f0818" transform="matrix(.1 0 0 -.1 0 300)"><path d="M1552 2943c17-32 63-110 101-173 139-229 215-356 252-425 21-38 62-110 90-160 186-320 567-1051 656-1254 44-102 325-640 344-659 3-3 5 610 5 1361v1367H1520l32-57zM0 1288V0h400c220 0 400 2 400 4 0 3-4 16-10 30-5 14-23 115-40 223-85 552-255 1159-502 1788-69 175-183 424-226 495l-22 35V1288zm869 397c-10-9 19-128 109-450 84-300 143-640 162-921l10-151-7-82-6-81h724l-15 28c-8 15-90 154-183 309-211 354-224 377-346 602-207 385-341 626-375 671-39 52-67 81-73 75z"/></g></g></svg>